<svg xmlns="http://www.w3.org/2000/svg" width="52.06482" height="52.94664" viewBox="0 0 52.06482 52.94664">
  <g id="Ebene_2" data-name="Ebene 2">
    <g id="Ebene_1-2" data-name="Ebene 1">
      <path d="M51.90192,2.51553c-.1.5-.1.8-.2,1.2-1.3,12.2-1.3,12.2-10.3,20.7-4.6,4.3-9.2,8.7-13.9,12.9-3,2.7-2.8,2.5-5.9-.2-2.5-2.2-1.3-3.5.5-5.1,3.1-2.8,6-5.8,9-8.7q1.05-1.05,2.1-2.1a1.28,1.28,0,0,0,.3-1.8c-.7-.9-1.5-.6-2.1,0-3.9,3.6-7.8,7.3-11.6,11-1.4,1.3-2.5,1.9-4.2.5-2.6-2.1-2.8-2.4-.5-5,6.4-7.3,12.8-14.5,19.1-21.8a6.67508,6.67508,0,0,1,4.7-2.5c3.5-.4,6.9-.9,10.4-1.5C51.40192-.28446,52.50193.31557,51.90192,2.51553Z" fill="#010101"/>
      <path d="M4.70191,52.91555c-2.1-.3-3.5-1.1-4.2-2.8-.6-1.6-.9-3.2.5-4.6,2.1-2.1,4.2-4.2,6.4-6.3,1.2-1.1,1.4-2.1.1-3.3-1.4-1.4-2.7-2.9-4.1-4.3a3.05715,3.05715,0,0,1,0-4.8,2.8334,2.8334,0,0,1,4.4.2c5.8,5.9,11.6,11.9,17.4,17.9a2.674,2.674,0,0,1,.1,4,2.89692,2.89692,0,0,1-4.1.5,33.94747,33.94747,0,0,1-4.4-4.1c-1.4-1.5-2.4-1.3-3.7.1-1.9,2.1-3.9,4-5.9,6.1A2.65941,2.65941,0,0,1,4.70191,52.91555Z" fill="#020202"/>
    </g>
  </g>
</svg>
